<svg width="78" height="78" viewBox="0 0 78 78" fill="none" xmlns="http://www.w3.org/2000/svg">
<g id="Icon/Brain">
<path id="Union" fill-rule="evenodd" clip-rule="evenodd" d="M4.38042 35.3584C5.15612 36.6206 6.28365 37.6312 7.62611 38.2669C8.2627 38.5685 8.53326 39.3275 8.22997 39.9621C7.92667 40.5962 7.16462 40.8657 6.52803 40.5636C6.01745 40.3175 5.52869 40.0295 5.06611 39.7024C6.46639 43.8373 10.3563 46.6241 14.7377 46.6312H14.8141C14.7404 45.9292 14.7241 45.2228 14.7644 44.5186C15.3301 37.7371 21.0687 32.5482 27.8999 32.6416H35.1659C35.8712 32.6416 36.4423 32.0722 36.4423 31.3702C36.4423 29.2631 38.1573 27.5548 40.2728 27.5548H44.1032C44.8085 27.5548 45.3797 28.1243 45.3797 28.8268C45.3797 29.5288 44.8085 30.0982 44.1032 30.0982H40.2728C39.5674 30.0982 38.9963 30.6677 38.9963 31.3702C38.9963 33.4773 37.2813 35.185 35.1659 35.185H27.8999C22.415 35.0889 17.7908 39.2368 17.3141 44.68C17.2519 45.6428 17.3266 46.6094 17.5361 47.5516C17.5912 47.8059 17.6561 48.045 17.7292 48.2857C17.7428 48.3324 17.757 48.3807 17.7723 48.428C17.8514 48.6823 17.9397 48.9241 18.0379 49.1643L18.0685 49.2365C19.2926 52.1537 21.798 54.3461 24.8599 55.1796L24.9531 55.2035C25.1866 55.2649 25.4239 55.3155 25.6639 55.36C25.7548 55.3765 25.8473 55.3898 25.9394 55.4031L26.0278 55.416L26.0872 55.4247L26.0873 55.4248C26.2412 55.4475 26.3943 55.4701 26.5503 55.485C26.8656 55.5138 27.1886 55.5334 27.505 55.5334C30.7359 55.5247 33.7727 53.9962 35.6972 51.4115C35.0922 51.0268 34.5118 50.6063 33.9581 50.1526C33.4159 49.7033 33.3417 48.9013 33.7929 48.3612C34.2434 47.8211 35.0486 47.7472 35.5908 48.1966C39.1185 51.1198 43.7776 52.3108 48.2828 51.4409C52.788 50.5704 56.6621 47.7309 58.837 43.7058C58.1518 42.7783 57.6298 41.7416 57.2932 40.6397C57.0985 39.9687 57.4836 39.2661 58.1562 39.0673C58.8283 38.8678 59.5363 39.2466 59.7409 39.9149C60.7304 43.2581 63.8686 45.5086 67.3658 45.3826C70.8629 45.2565 73.8299 42.7859 74.5739 39.3802C75.3185 35.9745 73.6515 32.4993 70.5231 30.9366C70.3605 31.6761 70.1423 32.4026 69.8707 33.11C69.6143 33.7642 68.8735 34.088 68.2162 33.8321C67.5589 33.5767 67.2343 32.8383 67.4907 32.1842C67.8916 31.1561 68.1551 30.0803 68.2735 28.9844C68.2942 28.8089 68.3067 28.6448 68.3193 28.4758C68.3411 28.1688 68.3618 27.864 68.3618 27.5548C68.3618 22.041 64.7872 17.1585 59.5161 15.4735C59.9176 16.0783 60.2744 16.7118 60.5837 17.3682C60.7964 17.7839 60.7631 18.2826 60.4975 18.6668C60.2318 19.0509 59.7758 19.2596 59.3099 19.2101C58.8441 19.1602 58.4431 18.8602 58.2648 18.4288C55.4751 12.4721 48.5997 9.59944 42.3784 11.7918C41.4369 12.1146 40.5373 12.5465 39.6973 13.0785C39.106 13.4621 38.315 13.2958 37.9299 12.7074C37.5448 12.1189 37.7117 11.3305 38.303 10.9469C38.4385 10.8575 38.5785 10.7769 38.7186 10.6963L38.7186 10.6963C38.7777 10.6624 38.8367 10.6284 38.8954 10.5938C36.1914 9.31472 33.0188 9.5 30.4839 11.086C31.0758 11.6071 31.6049 12.195 32.0609 12.8383C32.3331 13.2105 32.3817 13.7001 32.1886 14.1184C31.9955 14.5368 31.5902 14.8188 31.1292 14.8547C30.6683 14.8911 30.2237 14.6759 29.9668 14.2929C29.3645 13.4382 28.5932 12.7144 27.7008 12.1667H27.6888C24.3651 10.108 20.0148 10.9024 17.6408 14.0022C18.1459 14.1456 18.6391 14.3287 19.1158 14.5499C19.5386 14.7384 19.8261 15.1399 19.867 15.5996C19.9073 16.0593 19.6951 16.5048 19.3117 16.764C18.9282 17.0226 18.434 17.0547 18.0199 16.8466C15.9525 15.8735 13.5567 15.8707 11.4871 16.8401C9.41805 17.8089 7.89122 19.6481 7.32445 21.8551C8.01123 21.5949 8.72364 21.4096 9.45024 21.3031C10.149 21.2037 10.796 21.6878 10.8952 22.3833C10.9945 23.0788 10.509 23.7232 9.81026 23.8221C8.64291 23.9894 7.53065 24.4246 6.56131 25.094L6.5444 25.1082C3.21852 27.3967 2.26118 31.8723 4.36242 35.3122C4.3656 35.3196 4.36792 35.3266 4.3701 35.3332C4.37317 35.3424 4.37596 35.3508 4.38042 35.3584ZM57.5072 59.3482C64.1949 59.3482 69.6362 55.0704 69.6362 49.8103C69.634 49.0779 69.5244 48.3492 69.3106 47.6483C66.2738 48.3373 63.0876 47.5956 60.6721 45.6363C57.685 50.5406 52.5214 53.724 46.7823 54.1989C48.6326 56.7787 51.4326 58.5245 54.5708 59.0548C55.5363 59.2537 56.5209 59.352 57.5072 59.3482ZM38.6235 52.9191C40.2916 53.5988 42.0525 54.0237 43.8471 54.1807C45.7165 57.7782 49.0773 60.3771 53.0398 61.2899V66.9032C53.0371 67.6503 52.4272 68.2534 51.6771 68.2512C51.2888 68.2474 50.9189 68.0828 50.656 67.7975L43.2711 59.3719C42.5085 58.5259 41.4131 58.0532 40.272 58.0776C38.2106 58.0716 36.5233 56.4416 36.4546 54.3894C37.0034 53.8574 37.5025 53.2766 37.946 52.6545C37.9737 52.6678 38.0027 52.6784 38.0317 52.689C38.0558 52.6978 38.0798 52.7066 38.1031 52.717C38.1617 52.7427 38.2204 52.7703 38.279 52.798C38.348 52.8305 38.417 52.8631 38.486 52.8925C38.5313 52.9044 38.5771 52.9137 38.6235 52.9191Z" fill="#FFDF8E"/>
</g>
</svg>
