<svg width="79" height="78" viewBox="0 0 79 78" fill="none" xmlns="http://www.w3.org/2000/svg">
<g clip-path="url(#clip0_345_2109)">
<path fill-rule="evenodd" clip-rule="evenodd" d="M52.0499 20.0471C52.05 25.9999 56.8922 30.8407 62.8442 30.8407C68.7963 30.8407 73.6388 26 73.6388 20.0471C73.6388 14.096 68.7963 9.2536 62.8442 9.25354C56.8922 9.25354 52.0499 14.096 52.0499 20.0471ZM61.7318 26.92C60.2595 26.6238 58.7846 25.4662 58.8089 22.957C58.8142 22.418 59.253 21.9848 59.7912 21.9848H59.8009C60.3435 21.9899 60.7789 22.4333 60.7738 22.9758C60.758 24.6064 61.6623 24.9936 62.4237 25.0312C63.5746 25.0908 64.7301 24.3676 64.8049 23.5472L64.8091 23.5079C65.0117 21.9609 62.9557 21.0876 62.3209 20.8573C59.578 19.8595 58.4485 18.3516 58.9636 16.3748C59.4442 14.5308 60.6884 13.5435 61.9918 13.2207L61.9919 11.957C61.9919 11.4146 62.4316 10.9763 62.9743 10.9763C63.5169 10.9763 63.9566 11.4147 63.9566 11.9571L63.9567 13.2222C65.7642 13.6731 66.947 15.2611 66.8767 17.2174C66.8573 17.7598 66.399 18.1862 65.8598 18.1641C65.3175 18.1435 64.8935 17.6882 64.9132 17.1457C64.9611 15.8119 64.0523 15.2013 63.2597 15.0853C62.4023 14.959 61.2608 15.3531 60.8649 16.8711C60.6961 17.5193 60.8367 18.2271 62.9924 19.0101C63.973 19.3665 67.1368 20.7601 66.7599 23.745C66.6044 25.3408 65.2285 26.468 63.6967 26.8535V28.1371C63.6967 28.6795 63.2567 29.1196 62.7142 29.1196C62.1716 29.1196 61.7317 28.6795 61.7317 28.1371L61.7318 26.92ZM50.192 21.729H28.8097C28.8826 21.1782 28.9208 20.6167 28.9208 20.0463C28.9208 19.476 28.8826 18.9145 28.8097 18.3637H50.192C50.1191 18.9145 50.0809 19.476 50.0809 20.0463C50.0809 20.6167 50.1191 21.1782 50.192 21.729ZM36.7583 49.9833C30.3849 50.3018 24.2625 51.7348 20.1474 54.2825C19.7145 55.9455 18.0346 63.2868 20.4631 68.7467H58.5374C60.9716 63.2765 59.2877 55.9455 58.8532 54.2825C57.2369 53.2816 55.3107 52.4528 53.1809 51.796C52.9873 51.7363 52.7921 51.6779 52.5951 51.6211C52.3983 51.5642 52.1998 51.5087 51.9997 51.4547C51.7997 51.4007 51.5983 51.3481 51.3952 51.297C51.1923 51.2458 50.9878 51.196 50.782 51.1477C50.5763 51.0993 50.3691 51.0524 50.1607 51.0069C49.9523 50.9614 49.7426 50.9174 49.5316 50.8747C49.3207 50.8321 49.1087 50.7908 48.8954 50.751C48.6822 50.7112 48.4679 50.6728 48.2524 50.6359C48.0371 50.5989 47.8208 50.5633 47.6032 50.5292C47.3859 50.4951 47.1676 50.4624 46.9482 50.4311C46.729 50.3999 46.509 50.37 46.2879 50.3416C46.0671 50.3132 45.8455 50.2861 45.6228 50.2606C45.4005 50.235 45.1776 50.2107 44.9534 50.188C44.7298 50.1653 44.5055 50.1439 44.2802 50.1241C44.0553 50.1041 43.8299 50.0856 43.6036 50.0686C43.3777 50.0516 43.1514 50.0359 42.9241 50.0217C42.6974 50.0075 42.4703 49.9947 42.2428 49.9833C42.0154 49.9719 41.787 49.962 41.5591 49.9535C41.3311 49.9449 41.1022 49.9378 40.8739 49.9321C40.6455 49.9265 40.4163 49.9222 40.1877 49.9193C39.9591 49.9165 39.7297 49.9151 39.5011 49.9151C39.2724 49.9151 39.043 49.9165 38.8144 49.9193C38.5859 49.9222 38.3565 49.9265 38.1282 49.9321C37.8999 49.9378 37.6709 49.945 37.443 49.9535C37.2152 49.962 36.9856 49.9719 36.7583 49.9833ZM0.50647 46.4308L39.5031 32.5193L78.5 46.4308L60.3402 52.909C60.3082 52.8818 60.2742 52.8562 60.2384 52.834C55.4758 49.7398 47.9181 47.9677 39.5031 47.9677C31.0883 47.9677 23.5306 49.7398 18.7678 52.834C18.7322 52.8562 18.6983 52.8818 18.6662 52.909L0.50647 46.4308ZM8.91961 60.0484L3.76774 60.0483C3.02609 61.3532 1.04422 65.3018 1.98336 68.7473H10.704C11.6429 65.3018 9.66181 61.3549 8.91961 60.0484ZM4.73875 58.0842V50.026L7.95213 51.1722V58.0842H4.73875ZM20.0885 23.7451C20.4653 20.7602 17.3014 19.3666 16.3208 19.0101C14.1653 18.2272 14.0245 17.5193 14.1936 16.8712C14.5893 15.3531 15.7313 14.9608 16.5881 15.0854C17.3809 15.2013 18.2896 15.8119 18.2416 17.1458C18.2221 17.6883 18.6461 18.1436 19.1882 18.1641C19.7284 18.1862 20.1858 17.7598 20.2054 17.2175C20.2756 15.2612 19.0927 13.6732 17.2852 13.2224V11.9571C17.2852 11.4147 16.8454 10.9763 16.3027 10.9763C15.7602 10.9763 15.3203 11.4147 15.3203 11.9571V13.2208C14.017 13.5436 12.7727 14.5309 12.292 16.3749C11.7768 18.3517 12.9065 19.8595 15.6493 20.8574C16.2842 21.0877 18.3402 21.9609 18.1377 23.508L18.1335 23.5473C18.059 24.3676 16.9021 25.0908 15.7522 25.0312C14.9907 24.9937 14.0864 24.6065 14.1023 22.9759C14.1075 22.4334 13.672 21.9899 13.1294 21.9848H13.1196C12.5815 21.9848 12.1426 22.418 12.1374 22.9571C12.1131 25.4664 13.5881 26.624 15.0604 26.9201V28.1372C15.0604 28.6796 15.5001 29.1197 16.0426 29.1197C16.5854 29.1197 17.0251 28.6796 17.0251 28.1372V26.8536C18.557 26.4681 19.9329 25.3409 20.0885 23.7451ZM5.37838 20.0472C5.37838 14.0961 10.2208 9.2536 16.1728 9.2536C22.1248 9.25366 26.9672 14.0961 26.9672 20.0472C26.9672 26 22.1248 30.8408 16.1728 30.8408C10.2208 30.8408 5.37838 26 5.37838 20.0472Z" fill="#FFDF8E"/>
</g>
<defs>
<clipPath id="clip0_345_2109">
<rect width="78" height="78" fill="white" transform="translate(0.5)"/>
</clipPath>
</defs>
</svg>
