<svg width="132" height="132" viewBox="0 0 132 132" fill="none" xmlns="http://www.w3.org/2000/svg">
<g style="mix-blend-mode:screen" opacity="0.13" filter="url(#filter0_f_436_3079)">
<circle cx="66" cy="66" r="32" fill="#FFDF8E"/>
</g>
<g clip-path="url(#clip0_436_3079)">
<path d="M56.8849 54.2288L53.5707 50.9146C53.113 50.4569 52.3713 50.4569 51.9136 50.9146C51.4559 51.3723 51.4559 52.114 51.9136 52.5717L55.2278 55.8859C55.6856 56.3437 56.4272 56.3437 56.8849 55.8859C57.3427 55.4282 57.3427 54.6865 56.8849 54.2288Z" fill="#FFDF8E"/>
<path d="M51.9336 63.8281H47.168C46.5202 63.8281 45.9961 64.3523 45.9961 65C45.9961 65.6477 46.5202 66.1719 47.168 66.1719H51.9336C52.5813 66.1719 53.1055 65.6477 53.1055 65C53.1055 64.3523 52.5813 63.8281 51.9336 63.8281Z" fill="#FFDF8E"/>
<path d="M84.8242 63.8281H80.0586C79.4109 63.8281 78.8867 64.3523 78.8867 65C78.8867 65.6477 79.4109 66.1719 80.0586 66.1719H84.8242C85.472 66.1719 85.9961 65.6477 85.9961 65C85.9961 64.3523 85.472 63.8281 84.8242 63.8281Z" fill="#FFDF8E"/>
<path d="M80.0881 50.9146C79.6303 50.4569 78.8887 50.4569 78.431 50.9146L75.1167 54.2288C74.659 54.6865 74.659 55.4282 75.1167 55.8859C75.5745 56.3437 76.3161 56.3437 76.7738 55.8859L80.0881 52.5717C80.5458 52.114 80.5458 51.3724 80.0881 50.9146Z" fill="#FFDF8E"/>
<path d="M65.9961 44.999C65.3484 44.999 64.8242 45.5232 64.8242 46.1709V50.9365C64.8242 51.5843 65.3484 52.1084 65.9961 52.1084C66.6438 52.1084 67.168 51.5843 67.168 50.9365V46.1709C67.168 45.5232 66.6438 44.999 65.9961 44.999Z" fill="#FFDF8E"/>
<path d="M72.5647 56.7256C70.0101 54.71 66.7053 53.9835 63.471 54.7569C59.721 55.6241 56.6976 58.6006 55.7835 62.3272C54.8694 66.0772 55.9241 69.874 58.6193 72.5225C59.5803 73.4835 60.1428 74.9912 60.1428 76.5382V76.796C60.1428 77.4522 60.6584 77.9679 61.3147 77.9679H70.6897C71.346 77.9679 71.8616 77.4522 71.8616 76.796V76.5382C71.8616 75.0147 72.4475 73.46 73.4788 72.4522C75.4476 70.46 76.5491 67.8116 76.5491 64.9991C76.5491 61.7647 75.096 58.7412 72.5647 56.7256ZM66.0022 61.4835C64.2342 61.4835 62.9472 62.6562 62.6102 64.0138C62.4568 64.6312 61.8356 65.0253 61.1899 64.8698C60.5628 64.7142 60.1794 64.0779 60.3351 63.4508C60.9157 61.107 63.1171 59.1397 66.0022 59.1397C66.6499 59.1397 67.1741 59.6639 67.1741 60.3116C67.1741 60.9594 66.6499 61.4835 66.0022 61.4835Z" fill="#FFDF8E"/>
<path d="M61.3125 80.3135V81.4854C61.3125 83.4239 62.8895 85.001 64.8281 85.001H67.1719C69.1105 85.001 70.6875 83.4239 70.6875 81.4854V80.3135H61.3125Z" fill="white"/>
</g>
<defs>
<filter id="filter0_f_436_3079" x="0.866016" y="0.866016" width="130.268" height="130.268" filterUnits="userSpaceOnUse" color-interpolation-filters="sRGB">
<feFlood flood-opacity="0" result="BackgroundImageFix"/>
<feBlend mode="normal" in="SourceGraphic" in2="BackgroundImageFix" result="shape"/>
<feGaussianBlur stdDeviation="16.567" result="effect1_foregroundBlur_436_3079"/>
</filter>
<clipPath id="clip0_436_3079">
<rect width="40" height="40" fill="white" transform="translate(46 45)"/>
</clipPath>
</defs>
</svg>
