<svg width="471" height="572" viewBox="0 0 471 572" fill="none" xmlns="http://www.w3.org/2000/svg">
<g style="mix-blend-mode:screen" opacity="0.13" filter="url(#filter0_f_437_3080)">
<circle cx="379.125" cy="193.125" r="186.375" fill="#FFDF8E"/>
</g>
<path d="M378.577 234.375C378.577 233.547 379.248 232.875 380.077 232.875C380.905 232.875 381.577 233.547 381.577 234.375L378.577 234.375ZM68.3143 207.687C67.7285 207.101 67.7286 206.151 68.3143 205.566L77.8603 196.02C78.4461 195.434 79.3958 195.434 79.9816 196.02C80.5674 196.605 80.5674 197.555 79.9816 198.141L71.4963 206.626L79.9816 215.112C80.5674 215.697 80.5674 216.647 79.9816 217.233C79.3958 217.819 78.4461 217.819 77.8603 217.233L68.3143 207.687ZM347.57 318.111L346.207 318.737L347.57 318.111ZM380.077 311L381.577 311L380.077 311ZM363.046 328.031L363.046 329.531L363.046 328.031ZM253.125 171.047L251.625 171.047L253.125 171.047ZM228.937 206.626L228.937 208.126L228.937 206.626ZM253.125 182.439L254.625 182.439L253.125 182.439ZM228.937 208.126L69.375 208.126L69.375 205.126L228.937 205.126L228.937 208.126ZM254.625 171.047L254.625 182.439L251.625 182.439L251.625 171.047L254.625 171.047ZM381.577 234.375L381.577 311L378.577 311L378.577 234.375L381.577 234.375ZM346.207 318.737L276.186 166.331L278.912 165.079L348.933 317.484L346.207 318.737ZM276.186 166.331C274.344 162.321 270.335 159.751 265.921 159.751L265.921 156.751C271.507 156.751 276.581 160.004 278.912 165.079L276.186 166.331ZM363.046 329.531C355.806 329.531 349.229 325.315 346.207 318.737L348.933 317.484C351.466 322.998 356.978 326.531 363.046 326.531L363.046 329.531ZM381.577 311C381.577 321.235 373.28 329.531 363.046 329.531L363.046 326.531C371.623 326.531 378.577 319.578 378.577 311L381.577 311ZM251.625 171.047C251.625 163.152 258.026 156.751 265.921 156.751L265.921 159.751C259.683 159.751 254.625 164.809 254.625 171.047L251.625 171.047ZM228.937 205.126C241.467 205.126 251.625 194.969 251.625 182.439L254.625 182.439C254.625 196.625 243.124 208.126 228.937 208.126L228.937 205.126Z" fill="url(#paint0_linear_437_3080)"/>
<g clip-path="url(#clip0_437_3080)">
<path d="M364.87 176.303L359.733 171.166C359.024 170.456 357.874 170.456 357.165 171.166C356.455 171.875 356.455 173.025 357.165 173.734L362.302 178.871C363.011 179.581 364.161 179.581 364.87 178.871C365.58 178.162 365.58 177.012 364.87 176.303Z" fill="#FFDF8E"/>
<path d="M357.203 191.184H349.816C348.812 191.184 348 191.996 348 193C348 194.004 348.812 194.816 349.816 194.816H357.203C358.207 194.816 359.02 194.004 359.02 193C359.02 191.996 358.207 191.184 357.203 191.184Z" fill="#FFDF8E"/>
<path d="M408.184 191.184H400.797C399.793 191.184 398.98 191.996 398.98 193C398.98 194.004 399.793 194.816 400.797 194.816H408.184C409.188 194.816 410 194.004 410 193C410 191.996 409.188 191.184 408.184 191.184Z" fill="#FFDF8E"/>
<path d="M400.836 171.166C400.126 170.457 398.976 170.457 398.267 171.166L393.13 176.303C392.42 177.013 392.42 178.162 393.13 178.872C393.839 179.581 394.989 179.581 395.698 178.872L400.836 173.735C401.545 173.025 401.545 171.876 400.836 171.166Z" fill="#FFDF8E"/>
<path d="M379 162C377.996 162 377.184 162.812 377.184 163.816V171.203C377.184 172.207 377.996 173.02 379 173.02C380.004 173.02 380.816 172.207 380.816 171.203V163.816C380.816 162.812 380.004 162 379 162Z" fill="#FFDF8E"/>
<path d="M389.175 180.176C385.215 177.052 380.093 175.926 375.08 177.125C369.267 178.469 364.581 183.082 363.164 188.859C361.747 194.671 363.382 200.556 367.56 204.661C369.049 206.151 369.921 208.488 369.921 210.886V211.285C369.921 212.302 370.72 213.102 371.737 213.102H386.269C387.286 213.102 388.085 212.302 388.085 211.285V210.886C388.085 208.524 388.993 206.114 390.592 204.552C393.643 201.464 395.351 197.359 395.351 193C395.351 187.987 393.098 183.3 389.175 180.176ZM379.003 187.551C376.263 187.551 374.268 189.369 373.745 191.473C373.508 192.43 372.545 193.041 371.544 192.8C370.572 192.558 369.978 191.572 370.219 190.6C371.119 186.967 374.531 183.918 379.003 183.918C380.007 183.918 380.819 184.73 380.819 185.734C380.819 186.738 380.007 187.551 379.003 187.551Z" fill="#FFDF8E"/>
<path d="M371.734 216.734V218.551C371.734 221.556 374.179 224 377.184 224H380.816C383.821 224 386.266 221.556 386.266 218.551V216.734H371.734Z" fill="#B7B6B3"/>
</g>
<defs>
<filter id="filter0_f_437_3080" x="0.75" y="-185.25" width="756.75" height="756.75" filterUnits="userSpaceOnUse" color-interpolation-filters="sRGB">
<feFlood flood-opacity="0" result="BackgroundImageFix"/>
<feBlend mode="normal" in="SourceGraphic" in2="BackgroundImageFix" result="shape"/>
<feGaussianBlur stdDeviation="96" result="effect1_foregroundBlur_437_3080"/>
</filter>
<linearGradient id="paint0_linear_437_3080" x1="482.5" y1="242.5" x2="-88" y2="198" gradientUnits="userSpaceOnUse">
<stop stop-color="white" stop-opacity="0.8"/>
<stop offset="1" stop-color="white" stop-opacity="0"/>
</linearGradient>
<clipPath id="clip0_437_3080">
<rect width="62" height="62" fill="white" transform="translate(348 162)"/>
</clipPath>
</defs>
</svg>
