<svg width="79" height="78" viewBox="0 0 79 78" fill="none" xmlns="http://www.w3.org/2000/svg">
<path fill-rule="evenodd" clip-rule="evenodd" d="M70.7307 20.263C69.5821 16.3293 67.1742 12.8813 63.8764 10.4487C57.0891 5.12362 50.7944 2.92067 43.4564 3.28977C39.3656 3.57591 35.3011 4.15898 31.2948 5.03443C25.9887 6.10231 22.1882 7.91021 19.6762 10.5614C17.6256 12.7493 16.0431 15.3328 15.026 18.1539C14.5833 19.4316 14.223 20.7364 13.9474 22.0602L13.8372 22.5331C13.5298 23.7037 13.1088 24.8413 12.58 25.9299L12.5337 26.0338L12.5336 26.0339C12.3021 26.5531 12.0704 27.0724 11.871 27.6022C11.739 27.8882 11.6683 28.1988 11.6634 28.5138C11.7192 28.9114 12.214 29.3645 12.738 29.8443L12.7381 29.8443L12.7383 29.8445C13.8124 30.599 14.5055 31.7832 14.6373 33.0893C14.6162 33.7083 14.4417 34.3123 14.1297 34.8473C12.509 38.2622 10.5228 41.4914 8.20587 44.4782C7.20819 45.6955 7.00571 46.1697 7.00188 46.3646C7.2408 46.5892 7.4959 46.796 7.76531 46.9831C8.10647 47.2207 8.46692 47.4295 8.84268 47.6073L8.84523 47.6086C9.954 48.1744 11.4713 48.9487 11.7736 50.537C11.9622 51.5162 11.8404 52.5299 11.4255 53.4369C11.2039 53.9021 10.976 54.3079 10.7774 54.6599C10.709 54.7795 10.6343 54.9118 10.5685 55.0327C11.1015 55.458 11.8421 56.0132 12.1536 56.243C12.4352 56.451 12.6206 56.7641 12.6676 57.111C12.7146 57.4578 12.6192 57.809 12.4031 58.0844C12.2115 58.3351 12.0452 58.6042 11.9068 58.8877C11.9882 58.9357 12.0716 58.9832 12.1542 59.0302L12.1543 59.0303L12.184 59.0472C13.3291 59.5415 14.2015 60.5108 14.573 61.7015C14.7599 62.6206 14.7186 63.5715 14.4527 64.4709L14.445 64.5056C14.388 64.7625 14.331 65.0193 14.297 65.2762C14.2222 66.053 14.3292 66.8364 14.6097 67.5645C14.8868 68.7699 16.0694 69.539 17.2836 69.3034C21.0538 68.3838 24.7717 67.2613 28.421 65.9408L28.4286 65.9382C29.6767 65.5117 30.8179 65.1122 31.7455 64.7874L31.7545 64.7843C32.7609 64.4311 33.5218 64.1658 33.9043 64.045C39.2913 62.3542 40.3838 60.407 40.3522 59.0713C40.3354 58.3554 40.9022 57.7612 41.6183 57.7445C42.3342 57.7278 42.9283 58.2945 42.9451 59.0106C43.0211 62.2478 40.2409 64.7737 34.683 66.5182C34.3378 66.6267 33.6734 66.8593 32.7922 67.1679L32.6118 67.231C32.313 67.3361 31.9914 67.4488 31.6521 67.5672C33.7948 69.9382 35.3592 72.7734 36.2225 75.8504H65.758C65.7496 75.8381 65.7409 75.8258 65.732 75.8136C65.7235 75.802 65.7148 75.7904 65.7061 75.7789C65.2603 75.2064 64.8667 74.5949 64.5299 73.952C63.8893 72.6381 63.3517 71.2763 62.9221 69.8792C62.1348 67.2275 61.5911 64.5094 61.2978 61.7588C60.7835 57.4228 61.4371 53.0281 63.1907 49.0294C64.2283 46.8704 65.508 44.8363 67.0053 42.9663L67.0104 42.9594C67.7633 41.9449 68.5413 40.8965 69.217 39.8316C71.0054 37.056 71.9666 33.8287 71.9884 30.5268C72.0622 27.0626 71.6388 23.6063 70.7307 20.263ZM16.5414 24.9095C16.2982 24.6663 16.1617 24.3365 16.1618 23.9927C16.1617 23.6488 16.2982 23.319 16.5414 23.0758C16.7846 22.8326 17.1144 22.6961 17.4582 22.6962H18.4504C18.5304 22.4362 18.6347 22.1842 18.7622 21.9437L18.061 21.2421C17.7335 20.9145 17.6057 20.4372 17.7255 19.99C17.8454 19.5426 18.1949 19.1933 18.6421 19.0734C19.0895 18.9536 19.5668 19.0815 19.8942 19.4089L20.5975 20.1127C20.8373 19.986 21.0884 19.882 21.3476 19.8021V18.807C21.3476 18.0911 21.928 17.5106 22.644 17.5106C23.36 17.5106 23.9405 18.0909 23.9405 18.807V19.802C24.1997 19.882 24.4508 19.9859 24.6906 20.1125L25.3939 19.4089C25.7213 19.0814 26.1987 18.9536 26.646 19.0734C27.0933 19.1933 27.4427 19.5426 27.5625 19.99C27.6824 20.4374 27.5545 20.9147 27.227 21.2421L26.5259 21.9437C26.6533 22.1842 26.7577 22.436 26.8377 22.6962H27.8298C28.5458 22.6962 29.1263 23.2766 29.1263 23.9927C29.1263 24.7086 28.5459 25.2891 27.8298 25.2891H26.8377C26.7577 25.5492 26.6533 25.8011 26.5259 26.0416L27.227 26.7432C27.7333 27.2494 27.7333 28.0702 27.227 28.5765C26.7208 29.0827 25.9 29.0827 25.3938 28.5765L24.6904 27.8731C24.4507 27.9998 24.1995 28.1039 23.9403 28.1839V29.1786C23.9403 29.8945 23.36 30.475 22.6439 30.475C21.928 30.475 21.3474 29.8947 21.3474 29.1786V28.1839C21.0882 28.1039 20.837 27.9998 20.5972 27.8731L19.894 28.5765C19.3878 29.0827 18.5671 29.0827 18.0607 28.5765C17.5545 28.0703 17.5545 27.2496 18.0607 26.7432L18.7618 26.0418C18.6345 25.8013 18.5301 25.5493 18.4501 25.2892H17.458C17.1144 25.2892 16.7846 25.1527 16.5414 24.9095ZM31.7189 40.8463H30.2382C30.1174 41.3104 29.9321 41.7552 29.6875 42.1679L30.7364 43.217C31.0639 43.5444 31.1917 44.0219 31.0719 44.4691C30.952 44.9165 30.6025 45.2658 30.1553 45.3857C29.7081 45.5055 29.2306 45.3776 28.9032 45.0502L27.8544 44.0009C27.4419 44.2452 26.9972 44.4305 26.5332 44.5515V46.032C26.5332 46.7479 25.9529 47.3284 25.2368 47.3284C24.5209 47.3284 23.9403 46.748 23.9403 46.032V44.5515C23.4764 44.4305 23.0317 44.2452 22.6192 44.0009L21.5704 45.0502C21.2431 45.3786 20.7652 45.5072 20.3173 45.3875C19.8694 45.2678 19.5195 44.9179 19.3997 44.4699C19.2799 44.022 19.4087 43.5443 19.7371 43.2169L20.7859 42.1677C20.5413 41.7552 20.356 41.3104 20.2352 40.8463H18.7546C18.0386 40.8463 17.4581 40.266 17.4581 39.5499C17.4581 38.8339 18.0385 38.2534 18.7546 38.2534H20.2352C20.356 37.7893 20.5413 37.3445 20.7859 36.9319L19.7371 35.8827C19.4087 35.5555 19.2801 35.0776 19.3997 34.6297C19.5194 34.1817 19.8694 33.8319 20.3173 33.7121C20.7652 33.5924 21.2429 33.721 21.5704 34.0494L22.6192 35.0987C23.0317 34.8544 23.4764 34.6691 23.9403 34.5481V33.0676C23.9403 32.3517 24.5207 31.7712 25.2368 31.7712C25.9527 31.7712 26.5332 32.3516 26.5332 33.0676V34.5481C26.9972 34.6691 27.4419 34.8544 27.8544 35.0987L28.9032 34.0494C29.2306 33.722 29.7081 33.5941 30.1553 33.714C30.6025 33.8338 30.952 34.1833 31.0719 34.6305C31.1917 35.0779 31.0638 35.5552 30.7364 35.8826L29.6875 36.9317C29.9321 37.3442 30.1174 37.7892 30.2382 38.2533H31.7189C32.4348 38.2533 33.0153 38.8337 33.0153 39.5497C33.0153 40.2658 32.435 40.8463 31.7189 40.8463ZM67.7327 29.1828C67.6224 29.8012 67.0847 30.2514 66.4565 30.2514H63.7688C63.4703 31.2658 63.064 32.2454 62.5571 33.1734L64.4588 35.0751C64.9031 35.5193 64.9651 36.2182 64.6056 36.7335C63.3593 38.5219 61.8059 40.0752 60.0175 41.3216C59.5021 41.6807 58.8036 41.6191 58.3591 41.1754L56.4574 39.2738C55.529 39.7807 54.549 40.187 53.5342 40.4855V43.1739C53.5337 43.8019 53.0837 44.3393 52.4656 44.4501C50.3191 44.8307 48.1224 44.8307 45.9758 44.4501C45.3577 44.3393 44.9077 43.8018 44.9073 43.1739V40.4855C43.8924 40.187 42.9125 39.7809 41.984 39.2738L40.0823 41.1754C39.6377 41.619 38.9392 41.6805 38.4239 41.3216C36.6355 40.0752 35.0822 38.5219 33.8358 36.7335C33.4763 36.2181 33.5381 35.5192 33.9827 35.0751L35.8843 33.1734C35.3774 32.2454 34.9713 31.2658 34.6726 30.2514H31.9849C31.3567 30.2516 30.819 29.8012 30.7087 29.1828C30.3273 27.036 30.3273 24.8388 30.7087 22.6918C30.819 22.0734 31.3567 21.6232 31.9849 21.6232H34.6726C34.9711 20.6088 35.3774 19.6293 35.8843 18.7012L33.9827 16.7996C33.5383 16.3553 33.4763 15.6564 33.8358 15.1411C35.0822 13.3528 36.6355 11.7994 38.4239 10.553C38.9389 10.1924 39.6384 10.2541 40.0823 10.6992L41.984 12.6008C42.9125 12.0939 43.8924 11.6877 44.9073 11.3892V8.70087C44.9075 8.073 45.3577 7.53544 45.9758 7.4247C48.1225 7.0461 50.3189 7.0461 52.4656 7.4247C53.0837 7.53544 53.5337 8.073 53.5342 8.70087V11.3893C54.549 11.6878 55.529 12.0939 56.4574 12.601L58.3591 10.6994C58.8029 10.2541 59.5027 10.1924 60.0175 10.5532C61.8059 11.7996 63.3593 13.3529 64.6056 15.1413C64.9651 15.6567 64.9033 16.3556 64.4588 16.7997L62.5571 18.7014C63.064 19.6294 63.4701 20.609 63.7688 21.6234H66.4565C67.0847 21.6232 67.6224 22.0736 67.7327 22.692C68.1143 24.8388 68.1143 27.036 67.7327 29.1828ZM49.2184 31.7712C52.4404 31.7712 55.0523 29.1593 55.0523 25.9373C55.0523 22.7153 52.4404 20.1033 49.2184 20.1033C45.9964 20.1033 43.3844 22.7153 43.3844 25.9373C43.3844 29.1593 45.9964 31.7712 49.2184 31.7712ZM25.2396 42.1422C26.6716 42.1422 27.8325 40.9814 27.8325 39.5493C27.8325 38.1173 26.6716 36.9565 25.2396 36.9565C23.8076 36.9565 22.6467 38.1173 22.6467 39.5493C22.6467 40.9814 23.8076 42.1422 25.2396 42.1422ZM23.9254 22.7083C24.6345 23.417 24.6349 24.5662 23.9264 25.2753C23.2167 25.9824 22.0687 25.9827 21.3587 25.2758C20.6499 24.567 20.6497 23.4179 21.3584 22.7089C22.0671 22.0001 23.2164 21.9998 23.9254 22.7083ZM61.498 23.1989C61.6285 23.7934 62.1553 24.217 62.7641 24.2168V24.217H65.334C65.4572 25.3611 65.4572 26.5152 65.334 27.6594H62.7639C62.1552 27.6592 61.6284 28.0828 61.4978 28.6773C61.187 30.099 60.6253 31.454 59.8394 32.6787C59.5088 33.1913 59.5811 33.8651 60.0128 34.296L61.832 36.1153C61.1113 37.012 60.2954 37.8279 59.3987 38.5486L57.5794 36.73C57.1485 36.2989 56.4757 36.2261 55.9626 36.5553C54.7377 37.3421 53.3819 37.9042 51.9594 38.215C51.3652 38.3459 50.9416 38.8725 50.9416 39.4811V42.0512C49.7979 42.1739 48.6442 42.1739 47.5005 42.0512V39.4811C47.5004 38.8724 47.0769 38.3457 46.4825 38.215C45.06 37.9043 43.7045 37.3422 42.4793 36.5553C41.9666 36.2249 41.2928 36.2976 40.8626 36.73L39.0433 38.5486C38.1466 37.8279 37.3307 37.012 36.6099 36.1153L38.4292 34.2962C38.8608 33.8652 38.9331 33.1914 38.6026 32.6788C37.8166 31.4541 37.255 30.0991 36.9442 28.6775C36.8136 28.0829 36.2868 27.6594 35.6781 27.6595H33.108C32.9848 26.5153 32.9848 25.3613 33.108 24.2171H35.6781C36.2868 24.2172 36.8136 23.7937 36.9442 23.1991C37.255 21.7775 37.8166 20.4225 38.6026 19.1978C38.9331 18.6852 38.8608 18.0114 38.4292 17.5804L36.6099 15.7612C37.3307 14.8645 38.1466 14.0486 39.0433 13.3278L40.8626 15.1464C41.2929 15.5784 41.9666 15.6513 42.4793 15.3211C43.7045 14.5342 45.06 13.9721 46.4825 13.6613C47.0769 13.5304 47.5005 13.0038 47.5005 12.3952V9.82516C48.6442 9.70236 49.7979 9.70236 50.9416 9.82516V12.3951C50.9418 13.0038 51.3652 13.5304 51.9596 13.6612C53.3821 13.9719 54.7377 14.5339 55.9628 15.3209C56.4758 15.6499 57.1486 15.5771 57.5795 15.1462L59.3988 13.3275C60.2955 14.0483 61.1114 14.8642 61.8322 15.7609L60.0129 17.5802C59.5813 18.0111 59.509 18.6849 59.8395 19.1975C60.6255 20.4222 61.1871 21.7772 61.498 23.1989ZM40.7944 25.9379C40.7944 30.592 44.5673 34.3648 49.2212 34.3648C53.8728 34.3594 57.6425 30.5897 57.648 25.9379C57.648 21.2839 53.8752 17.5111 49.2212 17.5111C44.5671 17.5111 40.7944 21.284 40.7944 25.9379Z" fill="#FFDF8E"/>
</svg>
