<svg width="179" height="19" viewBox="0 0 179 19" fill="none" xmlns="http://www.w3.org/2000/svg">
<path d="M0.992 18V1.2H9.2C11.312 1.2 12.896 1.6 13.952 2.4C15.024 3.2 15.56 4.256 15.56 5.568C15.56 6.448 15.344 7.216 14.912 7.872C14.48 8.512 13.888 9.008 13.136 9.36C12.384 9.712 11.52 9.888 10.544 9.888L11 8.904C12.056 8.904 12.992 9.08 13.808 9.432C14.624 9.768 15.256 10.272 15.704 10.944C16.168 11.616 16.4 12.44 16.4 13.416C16.4 14.856 15.832 15.984 14.696 16.8C13.56 17.6 11.888 18 9.68 18H0.992ZM4.856 15.072H9.392C10.4 15.072 11.16 14.912 11.672 14.592C12.2 14.256 12.464 13.728 12.464 13.008C12.464 12.304 12.2 11.784 11.672 11.448C11.16 11.096 10.4 10.92 9.392 10.92H4.568V8.088H8.72C9.664 8.088 10.384 7.928 10.88 7.608C11.392 7.272 11.648 6.768 11.648 6.096C11.648 5.44 11.392 4.952 10.88 4.632C10.384 4.296 9.664 4.128 8.72 4.128H4.856V15.072ZM26.8076 18.288C24.4236 18.288 22.5596 17.624 21.2156 16.296C19.8716 14.968 19.1996 13.072 19.1996 10.608V1.2H23.0876V10.464C23.0876 12.064 23.4156 13.216 24.0716 13.92C24.7276 14.624 25.6476 14.976 26.8316 14.976C28.0156 14.976 28.9356 14.624 29.5916 13.92C30.2476 13.216 30.5756 12.064 30.5756 10.464V1.2H34.4156V10.608C34.4156 13.072 33.7436 14.968 32.3996 16.296C31.0556 17.624 29.1916 18.288 26.8076 18.288ZM43.7776 18.288C42.4336 18.288 41.1456 18.112 39.9136 17.76C38.6816 17.392 37.6896 16.92 36.9376 16.344L38.2576 13.416C38.9776 13.928 39.8256 14.352 40.8016 14.688C41.7936 15.008 42.7936 15.168 43.8016 15.168C44.5696 15.168 45.1856 15.096 45.6496 14.952C46.1296 14.792 46.4816 14.576 46.7056 14.304C46.9296 14.032 47.0416 13.72 47.0416 13.368C47.0416 12.92 46.8656 12.568 46.5136 12.312C46.1616 12.04 45.6976 11.824 45.1216 11.664C44.5456 11.488 43.9056 11.328 43.2016 11.184C42.5136 11.024 41.8176 10.832 41.1136 10.608C40.4256 10.384 39.7936 10.096 39.2176 9.744C38.6416 9.392 38.1696 8.928 37.8016 8.352C37.4496 7.776 37.2736 7.04 37.2736 6.144C37.2736 5.184 37.5296 4.312 38.0416 3.528C38.5696 2.728 39.3536 2.096 40.3936 1.632C41.4496 1.152 42.7696 0.912 44.3536 0.912C45.4096 0.912 46.4496 1.04 47.4736 1.296C48.4976 1.536 49.4016 1.904 50.1856 2.4L48.9856 5.352C48.2016 4.904 47.4176 4.576 46.6336 4.368C45.8496 4.144 45.0816 4.032 44.3296 4.032C43.5776 4.032 42.9616 4.12 42.4816 4.296C42.0016 4.472 41.6576 4.704 41.4496 4.992C41.2416 5.264 41.1376 5.584 41.1376 5.952C41.1376 6.384 41.3136 6.736 41.6656 7.008C42.0176 7.264 42.4816 7.472 43.0576 7.632C43.6336 7.792 44.2656 7.952 44.9536 8.112C45.6576 8.272 46.3536 8.456 47.0416 8.664C47.7456 8.872 48.3856 9.152 48.9616 9.504C49.5376 9.856 50.0016 10.32 50.3536 10.896C50.7216 11.472 50.9056 12.2 50.9056 13.08C50.9056 14.024 50.6416 14.888 50.1136 15.672C49.5856 16.456 48.7936 17.088 47.7376 17.568C46.6976 18.048 45.3776 18.288 43.7776 18.288ZM53.5623 18V1.2H57.4503V18H53.5623ZM61.4373 18V1.2H64.6533L74.5653 13.296H73.0053V1.2H76.8453V18H73.6533L63.7173 5.904H65.2773V18H61.4373ZM84.3961 7.968H92.4841V10.992H84.3961V7.968ZM84.6841 14.88H93.8281V18H80.8201V1.2H93.5161V4.32H84.6841V14.88ZM102.442 18.288C101.098 18.288 99.8097 18.112 98.5777 17.76C97.3457 17.392 96.3537 16.92 95.6017 16.344L96.9217 13.416C97.6417 13.928 98.4897 14.352 99.4657 14.688C100.458 15.008 101.458 15.168 102.466 15.168C103.234 15.168 103.85 15.096 104.314 14.952C104.794 14.792 105.146 14.576 105.37 14.304C105.594 14.032 105.706 13.72 105.706 13.368C105.706 12.92 105.53 12.568 105.178 12.312C104.826 12.04 104.362 11.824 103.786 11.664C103.21 11.488 102.57 11.328 101.866 11.184C101.178 11.024 100.482 10.832 99.7777 10.608C99.0897 10.384 98.4577 10.096 97.8817 9.744C97.3057 9.392 96.8337 8.928 96.4657 8.352C96.1137 7.776 95.9377 7.04 95.9377 6.144C95.9377 5.184 96.1937 4.312 96.7057 3.528C97.2337 2.728 98.0177 2.096 99.0577 1.632C100.114 1.152 101.434 0.912 103.018 0.912C104.074 0.912 105.114 1.04 106.138 1.296C107.162 1.536 108.066 1.904 108.85 2.4L107.65 5.352C106.866 4.904 106.082 4.576 105.298 4.368C104.514 4.144 103.746 4.032 102.994 4.032C102.242 4.032 101.626 4.12 101.146 4.296C100.666 4.472 100.322 4.704 100.114 4.992C99.9057 5.264 99.8017 5.584 99.8017 5.952C99.8017 6.384 99.9777 6.736 100.33 7.008C100.682 7.264 101.146 7.472 101.722 7.632C102.298 7.792 102.93 7.952 103.618 8.112C104.322 8.272 105.018 8.456 105.706 8.664C106.41 8.872 107.05 9.152 107.626 9.504C108.202 9.856 108.666 10.32 109.018 10.896C109.386 11.472 109.57 12.2 109.57 13.08C109.57 14.024 109.306 14.888 108.778 15.672C108.25 16.456 107.458 17.088 106.402 17.568C105.362 18.048 104.042 18.288 102.442 18.288ZM117.746 18.288C116.402 18.288 115.114 18.112 113.882 17.76C112.65 17.392 111.658 16.92 110.906 16.344L112.226 13.416C112.946 13.928 113.794 14.352 114.77 14.688C115.762 15.008 116.762 15.168 117.77 15.168C118.538 15.168 119.154 15.096 119.618 14.952C120.098 14.792 120.45 14.576 120.674 14.304C120.898 14.032 121.01 13.72 121.01 13.368C121.01 12.92 120.834 12.568 120.482 12.312C120.13 12.04 119.666 11.824 119.09 11.664C118.514 11.488 117.874 11.328 117.17 11.184C116.482 11.024 115.786 10.832 115.082 10.608C114.394 10.384 113.762 10.096 113.186 9.744C112.61 9.392 112.138 8.928 111.77 8.352C111.418 7.776 111.242 7.04 111.242 6.144C111.242 5.184 111.498 4.312 112.01 3.528C112.538 2.728 113.322 2.096 114.362 1.632C115.418 1.152 116.738 0.912 118.322 0.912C119.378 0.912 120.418 1.04 121.442 1.296C122.466 1.536 123.37 1.904 124.154 2.4L122.954 5.352C122.17 4.904 121.386 4.576 120.602 4.368C119.818 4.144 119.05 4.032 118.298 4.032C117.546 4.032 116.93 4.12 116.45 4.296C115.97 4.472 115.626 4.704 115.418 4.992C115.21 5.264 115.106 5.584 115.106 5.952C115.106 6.384 115.282 6.736 115.634 7.008C115.986 7.264 116.45 7.472 117.026 7.632C117.602 7.792 118.234 7.952 118.922 8.112C119.626 8.272 120.322 8.456 121.01 8.664C121.714 8.872 122.354 9.152 122.93 9.504C123.506 9.856 123.97 10.32 124.322 10.896C124.69 11.472 124.874 12.2 124.874 13.08C124.874 14.024 124.61 14.888 124.082 15.672C123.554 16.456 122.762 17.088 121.706 17.568C120.666 18.048 119.346 18.288 117.746 18.288ZM129.152 18.192C128.512 18.192 127.96 17.976 127.496 17.544C127.048 17.096 126.824 16.528 126.824 15.84C126.824 15.152 127.048 14.6 127.496 14.184C127.96 13.752 128.512 13.536 129.152 13.536C129.808 13.536 130.36 13.752 130.808 14.184C131.256 14.6 131.48 15.152 131.48 15.84C131.48 16.528 131.256 17.096 130.808 17.544C130.36 17.976 129.808 18.192 129.152 18.192ZM140.035 18.288C138.691 18.288 137.403 18.112 136.171 17.76C134.939 17.392 133.947 16.92 133.195 16.344L134.515 13.416C135.235 13.928 136.083 14.352 137.059 14.688C138.051 15.008 139.051 15.168 140.059 15.168C140.827 15.168 141.443 15.096 141.907 14.952C142.387 14.792 142.739 14.576 142.963 14.304C143.187 14.032 143.299 13.72 143.299 13.368C143.299 12.92 143.123 12.568 142.771 12.312C142.419 12.04 141.955 11.824 141.379 11.664C140.803 11.488 140.163 11.328 139.459 11.184C138.771 11.024 138.075 10.832 137.371 10.608C136.683 10.384 136.051 10.096 135.475 9.744C134.899 9.392 134.427 8.928 134.059 8.352C133.707 7.776 133.531 7.04 133.531 6.144C133.531 5.184 133.787 4.312 134.299 3.528C134.827 2.728 135.611 2.096 136.651 1.632C137.707 1.152 139.027 0.912 140.611 0.912C141.667 0.912 142.707 1.04 143.731 1.296C144.755 1.536 145.659 1.904 146.443 2.4L145.243 5.352C144.459 4.904 143.675 4.576 142.891 4.368C142.107 4.144 141.339 4.032 140.587 4.032C139.835 4.032 139.219 4.12 138.739 4.296C138.259 4.472 137.915 4.704 137.707 4.992C137.499 5.264 137.395 5.584 137.395 5.952C137.395 6.384 137.571 6.736 137.923 7.008C138.275 7.264 138.739 7.472 139.315 7.632C139.891 7.792 140.523 7.952 141.211 8.112C141.915 8.272 142.611 8.456 143.299 8.664C144.003 8.872 144.643 9.152 145.219 9.504C145.795 9.856 146.259 10.32 146.611 10.896C146.979 11.472 147.163 12.2 147.163 13.08C147.163 14.024 146.899 14.888 146.371 15.672C145.843 16.456 145.051 17.088 143.995 17.568C142.955 18.048 141.635 18.288 140.035 18.288ZM153.396 7.968H161.484V10.992H153.396V7.968ZM153.684 14.88H162.828V18H149.82V1.2H162.516V4.32H153.684V14.88ZM169.402 18V4.368H164.026V1.2H178.666V4.368H173.29V18H169.402Z" fill="white"/>
</svg>
