<svg width="78" height="78" viewBox="0 0 78 78" fill="none" xmlns="http://www.w3.org/2000/svg">
<g id="Icon/Rocket">
<path id="Union" fill-rule="evenodd" clip-rule="evenodd" d="M70.8375 7.15742L70.8383 7.15805C71.27 7.59033 71.5076 8.17945 71.4956 8.78982C71.3593 16.0185 70.0156 33.8564 60.5194 43.3531C56.2156 47.6565 53.9751 49.0556 49.0671 52.1205L49.0664 52.121L49.0502 52.1311C45.5185 54.337 40.682 57.358 32.7408 62.8745C32.3522 63.1443 31.9046 63.2763 31.4591 63.2763C30.8794 63.2763 30.3035 63.0526 29.8687 62.6176L15.3765 48.1251C14.6072 47.3563 14.4993 46.1467 15.1198 45.2531C20.6289 37.3237 23.6499 32.4873 25.856 28.9554L25.8735 28.9273L25.8748 28.9253C28.9394 24.0177 30.3382 21.7777 34.6408 17.4751C44.1202 7.99528 61.9699 6.6421 69.2047 6.50018C69.2194 6.49997 69.2343 6.49976 69.2491 6.49976C69.8441 6.49976 70.4157 6.73587 70.8375 7.15742ZM43.4916 34.5027C46.4092 37.4202 51.139 37.4202 54.0567 34.5027C56.9739 31.5855 56.9735 26.8548 54.0567 23.9374C51.139 21.0199 46.4092 21.0204 43.492 23.938C40.5739 26.8555 40.5735 31.5851 43.4916 34.5027ZM22.8706 27.6505C20.734 31.0648 17.8035 35.6849 12.8216 42.8561C12.567 43.2232 12.3662 43.6124 12.2089 44.0132L6.78928 38.5937C6.78928 38.5937 14.6596 28.3768 22.8706 27.6505ZM39.398 71.2027L33.9819 65.7868C34.3858 65.6281 34.7726 65.4224 35.1355 65.1706C42.3091 60.1874 46.9277 57.258 50.3409 55.1222C49.6145 63.333 39.398 71.2027 39.398 71.2027ZM25.7465 62.9865C25.5261 63.0756 25.3066 63.1659 25.0873 63.2563L25.0872 63.2563C24.3813 63.547 23.6772 63.8369 22.9504 64.0798C20.4059 64.9303 17.7853 65.5049 15.1284 65.8716C14.0147 66.0253 12.8907 66.1556 11.7648 66.241L11.772 66.147C11.7802 66.0393 11.7885 65.9316 11.7976 65.8241C12.0299 63.1169 12.4418 60.4237 13.1072 57.7876C13.4279 56.5154 13.837 55.2787 14.2762 54.0437C14.5494 53.2758 14.8902 52.541 15.2339 51.8062L14.6381 51.2107C13.3129 52.1009 12.1603 53.2258 11.1822 54.4984C9.73418 56.3829 8.64886 58.5178 7.89006 60.7675C7.07492 63.1831 6.58881 65.7414 6.51312 68.2918C6.51156 68.344 6.5097 68.3963 6.50784 68.4488C6.49693 68.7565 6.48589 69.0679 6.53331 69.3716C6.60479 69.8308 6.80642 70.2654 7.1094 70.6176C7.40922 70.966 7.80386 71.229 8.24118 71.3701C8.60828 71.4884 8.97748 71.4905 9.35825 71.4876C11.6735 71.4682 14.0248 71.066 16.241 70.4075C20.2945 69.2032 24.3866 66.9375 26.7852 63.3574L26.2053 62.7779C26.0533 62.8494 25.9008 62.9194 25.7465 62.9865Z" fill="#FFDF8E"/>
</g>
</svg>
