<svg width="18" height="15" viewBox="0 0 18 15" fill="none" xmlns="http://www.w3.org/2000/svg">
<path id="Path-3" fill-rule="evenodd" clip-rule="evenodd" d="M1.22724 6.47954C6.03774 4.39041 9.24016 3.00224 10.8482 2.32877C15.4251 0.418314 16.3872 0.0884513 17.0057 0.074707C17.1431 0.074707 17.4455 0.102196 17.6517 0.267127C17.8166 0.40457 17.8578 0.583246 17.8853 0.720688C17.9128 0.858131 17.9403 1.14676 17.9128 1.36667C17.6654 3.97808 16.5933 10.3142 16.0436 13.228C15.8099 14.465 15.3564 14.8773 14.9165 14.9185C13.9544 15.001 13.226 14.2863 12.3051 13.6815C10.8482 12.7332 10.0373 12.1422 8.62166 11.2076C6.98609 10.1355 8.0444 9.54451 8.97901 8.58241C9.22641 8.33502 13.4459 4.48662 13.5284 4.14301C13.5421 4.10178 13.5421 3.93685 13.4459 3.85438C13.3497 3.77192 13.2122 3.79941 13.1023 3.82689C12.9511 3.85438 10.6421 5.39374 6.14769 8.43122C5.48797 8.88479 4.89697 9.10469 4.36094 9.09095C3.76993 9.07721 2.6429 8.76109 1.79076 8.4862C0.75994 8.15634 -0.0647167 7.97766 0.00400469 7.4004C0.0452375 7.09803 0.457565 6.79566 1.22724 6.47954Z" fill="white"/>
</svg>
