<svg width="18" height="16" viewBox="0 0 18 16" fill="none" xmlns="http://www.w3.org/2000/svg">
<path id="Path-3" fill-rule="evenodd" clip-rule="evenodd" d="M1.26515 6.97966C6.07564 4.89053 9.27806 3.50236 10.8861 2.82889C15.463 0.918436 16.4251 0.588573 17.0436 0.574829C17.181 0.574829 17.4834 0.602318 17.6896 0.767249C17.8545 0.904692 17.8957 1.08337 17.9232 1.22081C17.9507 1.35825 17.9782 1.64688 17.9507 1.86679C17.7033 4.4782 16.6312 10.8143 16.0815 13.7281C15.8478 14.9651 15.3943 15.3774 14.9544 15.4186C13.9923 15.5011 13.2639 14.7864 12.343 14.1817C10.8861 13.2333 10.0752 12.6423 8.65957 11.7077C7.024 10.6356 8.08231 10.0446 9.01692 9.08253C9.26431 8.83514 13.4838 4.98674 13.5663 4.64313C13.58 4.6019 13.58 4.43697 13.4838 4.3545C13.3876 4.27204 13.2502 4.29953 13.1402 4.32702C12.989 4.3545 10.68 5.89386 6.1856 8.93135C5.52587 9.38491 4.93487 9.60482 4.39884 9.59107C3.80784 9.57733 2.68081 9.26121 1.82866 8.98632C0.797843 8.65646 -0.0268138 8.47779 0.0419075 7.90053C0.0831403 7.59815 0.495468 7.29578 1.26515 6.97966Z" fill="#101010"/>
</svg>
